<svg width="238" height="238" viewBox="0 0 238 238" fill="none" xmlns="http://www.w3.org/2000/svg">
<rect x="18" y="110" width="110" height="110" fill="#FFE373"/>
<rect x="128" y="110" width="110" height="110" fill="#FFBF65"/>
<rect x="18" y="110" width="110" height="110" fill="#FFE373"/>
<rect y="128" width="110" height="110" fill="#FFBF65"/>
<line x1="158" y1="175" x2="208" y2="175" stroke="white" stroke-width="10"/>
<line x1="208" y1="155" x2="158" y2="155" stroke="white" stroke-width="10"/>
<path d="M41.8079 195.94L35 202.782C35 202.782 37.6745 206.203 42.4158 208.036C47.157 209.868 51.8982 209.991 51.8982 209.991L52.0198 215H59.9218V209.624C59.9218 209.624 63.2042 209.135 66.7297 207.18C70.2552 205.226 72.0788 202.782 72.0788 202.782C72.0788 202.782 74.8749 199.117 74.9964 193.13C75.118 187.143 72.0788 183.355 72.0788 183.355C72.0788 183.355 71.1062 181.034 67.216 179.323C63.3258 177.613 59.1924 177.246 59.1924 177.246L54.0865 176.513C54.0865 176.513 47.2785 175.902 47.2785 169.915C47.2785 163.929 54.0865 163.318 54.0865 163.318C54.0865 163.318 57.7335 162.794 61.2591 163.806C64.7846 164.819 66.8513 166.983 66.8513 166.983L73.5376 160.385C73.5376 160.385 70.6041 157.472 67.9454 156.231C65.2868 154.991 59.9218 154.032 59.9218 154.032V150H52.0198V154.032C52.0198 154.032 43.2667 155.132 39.3765 161.974C35.4863 168.816 36.8235 176.88 40.1059 180.545C43.3883 184.211 46.1844 185.188 52.0198 186.165C57.8551 187.143 53.2355 186.532 58.5845 187.143C60.5475 187.367 62.4748 188.242 63.6905 189.953C65.3924 193.008 65.2028 198.747 58.5845 200.216C48.1295 202.538 41.8079 195.94 41.8079 195.94Z" fill="white" stroke="white"/>
<rect x="18" width="110" height="110" fill="#FFBF65"/>
<rect x="128" width="110" height="110" fill="#FFBF65"/>
<line x1="48" y1="55" x2="98" y2="55" stroke="white" stroke-width="10"/>
<line x1="158" y1="55" x2="208" y2="55" stroke="white" stroke-width="10"/>
<line x1="73" y1="80" x2="73" y2="30" stroke="white" stroke-width="10"/>
</svg>
